<svg id="Layer_1" data-name="Layer 1" xmlns="http://www.w3.org/2000/svg" width="249.99" height="30.11" viewBox="0 0 249.99 30.11"><defs><style>.cls-1{fill:#fff;}</style></defs><title>logo-odoc</title><path class="cls-1" d="M4.34,9.29A4.61,4.61,0,0,1,2.55,9,4.27,4.27,0,0,1,1.15,8,4.18,4.18,0,0,1,.23,6.61,4.74,4.74,0,0,1-.1,4.82,4.74,4.74,0,0,1,.23,3a4.18,4.18,0,0,1,.92-1.42A4.28,4.28,0,0,1,2.55.7,4.61,4.61,0,0,1,4.34.36,4.6,4.6,0,0,1,6.12.7a4.29,4.29,0,0,1,1.4.93A4.2,4.2,0,0,1,8.45,3a4.74,4.74,0,0,1,.33,1.78,4.74,4.74,0,0,1-.33,1.78A4.2,4.2,0,0,1,7.52,8,4.28,4.28,0,0,1,6.12,9,4.6,4.6,0,0,1,4.34,9.29Zm0-.94A3.3,3.3,0,0,0,5.7,8.08a3.21,3.21,0,0,0,1.06-.76A3.45,3.45,0,0,0,7.45,6.2,3.8,3.8,0,0,0,7.7,4.82a3.81,3.81,0,0,0-.25-1.37,3.46,3.46,0,0,0-.69-1.12A3.21,3.21,0,0,0,5.7,1.57,3.3,3.3,0,0,0,4.34,1.3,3.3,3.3,0,0,0,3,1.57a3.21,3.21,0,0,0-1.06.76,3.46,3.46,0,0,0-.69,1.12A3.81,3.81,0,0,0,1,4.82,3.8,3.8,0,0,0,1.22,6.2a3.45,3.45,0,0,0,.69,1.12A3.21,3.21,0,0,0,3,8.08,3.3,3.3,0,0,0,4.34,8.35Z" transform="translate(0.1 -0.36)"/><path class="cls-1" d="M10.4.58h5.27v.94H11.41V4.32h4v.94h-4V9.07h-1Z" transform="translate(0.1 -0.36)"/><path class="cls-1" d="M17.07.58h5.27v.94H18.08V4.32h4v.94h-4V9.07h-1Z" transform="translate(0.1 -0.36)"/><path class="cls-1" d="M23.74.58h1v8.5h-1Z" transform="translate(0.1 -0.36)"/><path class="cls-1" d="M32.81,2.33a2.43,2.43,0,0,0-.95-.77,2.8,2.8,0,0,0-1.18-.26,2.94,2.94,0,0,0-1.3.29,3.25,3.25,0,0,0-1,.77,3.55,3.55,0,0,0-.67,1.13,3.79,3.79,0,0,0-.24,1.34,3.93,3.93,0,0,0,.24,1.39,3.47,3.47,0,0,0,.67,1.12,3.12,3.12,0,0,0,1,.75,3.3,3.3,0,0,0,2.71,0,3.16,3.16,0,0,0,1.07-.88l.76.64a3.49,3.49,0,0,1-1.39,1.13,4.46,4.46,0,0,1-1.83.36A4.32,4.32,0,0,1,29,9,4.2,4.2,0,0,1,27.61,8a4.3,4.3,0,0,1-.91-1.41,4.73,4.73,0,0,1-.33-1.79,4.78,4.78,0,0,1,.32-1.75A4.19,4.19,0,0,1,28.95.71,4.28,4.28,0,0,1,30.69.36a4.53,4.53,0,0,1,1.66.31,3.06,3.06,0,0,1,1.34,1Z" transform="translate(0.1 -0.36)"/><path class="cls-1" d="M35.31.58h5.34v.94H36.32V4.18h4v.94h-4v3h4.55v.94H35.31Z" transform="translate(0.1 -0.36)"/><path class="cls-1" d="M49.71,9.29A4.61,4.61,0,0,1,47.93,9,4.27,4.27,0,0,1,46.52,8a4.18,4.18,0,0,1-.92-1.42,4.74,4.74,0,0,1-.33-1.78A4.74,4.74,0,0,1,45.6,3a4.18,4.18,0,0,1,.92-1.42A4.28,4.28,0,0,1,47.93.7a4.9,4.9,0,0,1,3.56,0,4.29,4.29,0,0,1,1.4.93A4.2,4.2,0,0,1,53.82,3a4.74,4.74,0,0,1,.33,1.78,4.74,4.74,0,0,1-.33,1.78A4.2,4.2,0,0,1,52.9,8a4.28,4.28,0,0,1-1.4.93A4.6,4.6,0,0,1,49.71,9.29Zm0-.94a3.3,3.3,0,0,0,1.36-.28,3.21,3.21,0,0,0,1.06-.76,3.45,3.45,0,0,0,.69-1.12,3.8,3.8,0,0,0,.25-1.37,3.81,3.81,0,0,0-.25-1.37,3.46,3.46,0,0,0-.69-1.12,3.21,3.21,0,0,0-1.06-.76,3.5,3.5,0,0,0-2.72,0,3.21,3.21,0,0,0-1.06.76,3.46,3.46,0,0,0-.69,1.12,3.81,3.81,0,0,0-.25,1.37,3.8,3.8,0,0,0,.25,1.37,3.45,3.45,0,0,0,.69,1.12,3.21,3.21,0,0,0,1.06.76A3.3,3.3,0,0,0,49.71,8.35Z" transform="translate(0.1 -0.36)"/><path class="cls-1" d="M55.77.58H61v.94H56.78V4.32h4v.94h-4V9.07h-1Z" transform="translate(0.1 -0.36)"/><path class="cls-1" d="M71.48,1.51H68.67V9.07h-1V1.51H64.85V.58h6.62Z" transform="translate(0.1 -0.36)"/><path class="cls-1" d="M72.66.58h1v3.6h4.54V.58h1v8.5h-1v-4H73.67v4h-1Z" transform="translate(0.1 -0.36)"/><path class="cls-1" d="M81.33.58h5.34v.94H82.34V4.18h4v.94h-4v3h4.55v.94H81.33Z" transform="translate(0.1 -0.36)"/><path class="cls-1" d="M1,14.5H7a8.11,8.11,0,0,1,1.63.18,8,8,0,0,1,1.71.56,7.93,7.93,0,0,1,1.63,1,6.66,6.66,0,0,1,1.38,1.48,7.41,7.41,0,0,1,.95,2,8.64,8.64,0,0,1,.35,2.56,8.64,8.64,0,0,1-.35,2.56,7.41,7.41,0,0,1-.95,2,6.65,6.65,0,0,1-1.37,1.48,7.87,7.87,0,0,1-1.63,1,8,8,0,0,1-1.71.56A8.11,8.11,0,0,1,7,30.07H1ZM2.83,28.36H6.35A8.4,8.4,0,0,0,8.84,28a5.3,5.3,0,0,0,2-1.09A5.12,5.12,0,0,0,12.14,25a7,7,0,0,0,.48-2.75,7,7,0,0,0-.48-2.75,5.13,5.13,0,0,0-1.32-1.88,5.32,5.32,0,0,0-2-1.09,8.41,8.41,0,0,0-2.49-.35H2.83Z" transform="translate(0.1 -0.36)"/><path class="cls-1" d="M17.57,14.5h9.79v1.72H19.42V21.1h7.41v1.72H19.42v5.54h8.34v1.72H17.57Z" transform="translate(0.1 -0.36)"/><path class="cls-1" d="M35.68,14.5h1.74L44,30.07H41.88L40.3,26.24H32.51L30.9,30.07H28.81Zm.84,2.38h0l-3.23,7.66h6.36Z" transform="translate(0.1 -0.36)"/><path class="cls-1" d="M46.1,14.5h2.33l9,12.94h0V14.5h1.85V30.07H57L48,17.14h0V30.07H46.1Z" transform="translate(0.1 -0.36)"/><path class="cls-1" d="M76.58,30.47a8.46,8.46,0,0,1-3.27-.62,7.86,7.86,0,0,1-2.57-1.71A7.67,7.67,0,0,1,69,25.55,9.13,9.13,0,0,1,69,19a7.67,7.67,0,0,1,1.69-2.6,7.84,7.84,0,0,1,2.57-1.71,9,9,0,0,1,6.53,0,7.85,7.85,0,0,1,2.57,1.71A7.65,7.65,0,0,1,84.11,19a9.12,9.12,0,0,1,0,6.53,7.66,7.66,0,0,1-1.69,2.6,7.86,7.86,0,0,1-2.57,1.71A8.46,8.46,0,0,1,76.58,30.47Zm0-1.72a6,6,0,0,0,2.5-.51A5.89,5.89,0,0,0,81,26.86a6.35,6.35,0,0,0,1.26-2.06,7.26,7.26,0,0,0,0-5A6.34,6.34,0,0,0,81,17.71a5.91,5.91,0,0,0-1.95-1.39,6.42,6.42,0,0,0-5,0,5.89,5.89,0,0,0-1.95,1.39,6.33,6.33,0,0,0-1.27,2.06,7.26,7.26,0,0,0,0,5,6.33,6.33,0,0,0,1.27,2.06,5.88,5.88,0,0,0,1.95,1.39A6,6,0,0,0,76.58,28.75Z" transform="translate(0.1 -0.36)"/><path class="cls-1" d="M87.68,14.5h9.66v1.72H89.53v5.15h7.26v1.72H89.53v7H87.68Z" transform="translate(0.1 -0.36)"/><path class="cls-1" d="M116.48,16.21h-5.15V30.07h-1.85V16.21h-5.15V14.5h12.14Z" transform="translate(0.1 -0.36)"/><path class="cls-1" d="M118.66,14.5h1.85v6.6h8.32V14.5h1.85V30.07h-1.85V22.81h-8.32v7.26h-1.85Z" transform="translate(0.1 -0.36)"/><path class="cls-1" d="M134.54,14.5h9.79v1.72h-7.94V21.1h7.41v1.72h-7.41v5.54h8.34v1.72H134.54Z" transform="translate(0.1 -0.36)"/><path class="cls-1" d="M164.62,17.71a4.45,4.45,0,0,0-1.74-1.42,5.13,5.13,0,0,0-2.16-.47,5.4,5.4,0,0,0-2.39.53,6,6,0,0,0-1.88,1.42,6.52,6.52,0,0,0-1.23,2.07,6.94,6.94,0,0,0-.44,2.45,7.18,7.18,0,0,0,.44,2.54,6.34,6.34,0,0,0,1.22,2,5.72,5.72,0,0,0,1.87,1.38,6,6,0,0,0,5-.05,5.79,5.79,0,0,0,2-1.62l1.39,1.17a6.41,6.41,0,0,1-2.54,2.07,8.18,8.18,0,0,1-3.35.66,7.92,7.92,0,0,1-3.12-.62,7.71,7.71,0,0,1-2.52-1.71,7.87,7.87,0,0,1-1.67-2.58,8.66,8.66,0,0,1-.6-3.28,8.77,8.77,0,0,1,.58-3.21,7.73,7.73,0,0,1,7.34-5,8.3,8.3,0,0,1,3,.57,5.61,5.61,0,0,1,2.45,1.87Z" transform="translate(0.1 -0.36)"/><path class="cls-1" d="M176.43,30.47a8.46,8.46,0,0,1-3.27-.62,7.86,7.86,0,0,1-2.57-1.71,7.67,7.67,0,0,1-1.69-2.6,9.13,9.13,0,0,1,0-6.53,7.67,7.67,0,0,1,1.69-2.6,7.84,7.84,0,0,1,2.57-1.71,9,9,0,0,1,6.53,0,7.85,7.85,0,0,1,2.57,1.71A7.65,7.65,0,0,1,184,19a9.12,9.12,0,0,1,0,6.53,7.66,7.66,0,0,1-1.69,2.6,7.86,7.86,0,0,1-2.57,1.71A8.46,8.46,0,0,1,176.43,30.47Zm0-1.72a6,6,0,0,0,2.5-.51,5.89,5.89,0,0,0,1.95-1.39,6.35,6.35,0,0,0,1.26-2.06,7.26,7.26,0,0,0,0-5,6.34,6.34,0,0,0-1.26-2.06,5.91,5.91,0,0,0-1.95-1.39,6.42,6.42,0,0,0-5,0A5.89,5.89,0,0,0,172,17.71a6.33,6.33,0,0,0-1.27,2.06,7.26,7.26,0,0,0,0,5A6.33,6.33,0,0,0,172,26.86a5.88,5.88,0,0,0,1.95,1.39A6,6,0,0,0,176.43,28.75Z" transform="translate(0.1 -0.36)"/><path class="cls-1" d="M187.54,14.5h1.85V28.36h7.13v1.72h-9Z" transform="translate(0.1 -0.36)"/><path class="cls-1" d="M198.54,14.5h1.85V28.36h7.13v1.72h-9Z" transform="translate(0.1 -0.36)"/><path class="cls-1" d="M209.54,14.5h9.79v1.72h-7.94V21.1h7.41v1.72h-7.41v5.54h8.34v1.72H209.54Z" transform="translate(0.1 -0.36)"/><path class="cls-1" d="M235.83,29a11,11,0,0,1-2.83,1.1,13,13,0,0,1-3,.35,9.09,9.09,0,0,1-3.34-.59A7.81,7.81,0,0,1,224,28.2a7.5,7.5,0,0,1-1.73-2.58,8.72,8.72,0,0,1-.62-3.33,8.4,8.4,0,0,1,.65-3.35,7.56,7.56,0,0,1,1.79-2.57,8.29,8.29,0,0,1,2.66-1.66,8.92,8.92,0,0,1,3.28-.59,9.5,9.5,0,0,1,3,.46,6.33,6.33,0,0,1,2.54,1.58l-1.39,1.45a5.32,5.32,0,0,0-1.92-1.32,6.1,6.1,0,0,0-2.32-.46,6.32,6.32,0,0,0-2.49.48,6,6,0,0,0-3.31,3.39,7.29,7.29,0,0,0,0,5.17,6.18,6.18,0,0,0,1.32,2.06,5.91,5.91,0,0,0,2,1.35,6.89,6.89,0,0,0,2.62.48,9.13,9.13,0,0,0,2-.23,8,8,0,0,0,1.89-.67V23.08H230.4V21.36h5.43Z" transform="translate(0.1 -0.36)"/><path class="cls-1" d="M239.71,14.5h9.79v1.72h-7.94V21.1H249v1.72h-7.41v5.54h8.34v1.72H239.71Z" transform="translate(0.1 -0.36)"/></svg>